<?xml version="1.0" encoding="utf-8"?>
<!-- Generator: Adobe Illustrator 27.5.0, SVG Export Plug-In . SVG Version: 6.00 Build 0)  -->
<svg version="1.1" id="Layer_1" xmlns="http://www.w3.org/2000/svg" xmlns:xlink="http://www.w3.org/1999/xlink" x="0px" y="0px"
	 viewBox="0 0 272.085 379.631" style="enable-background:new 0 0 272.085 379.631;" xml:space="preserve">
<g>
	<g>
		<path style="fill:#C97A62;stroke:#774636;stroke-miterlimit:10;" d="M185.793,107.107c-0.102-1.768-0.69-3.994-2.902-3.826
			c-0.694,0.053-1.576,0.556-1.599,1.357c-2.302,0.449-3.819,2.642-4.748,4.791c-1.393,3.221-1.832,6.856-2.269,10.308
			c-0.517,4.091-1.261,8.022-2.254,12.037c-1.523,6.152-3.294,12.24-5.126,18.306c-2.053,6.794-4.087,13.555-7.163,19.973
			c-0.357,0.744,0.009,1.338,0.86,1.227c0.715-0.094,1.408-0.306,2.079-0.58c-2.017,5.826-17.602,38.012-19.699,41.632
			c-2.321,4.009-4.493,8.12-6.169,12.444c-0.276,0.711,0.392,1.141,1.021,1.019c0.589-0.113,1.169-0.29,1.741-0.508
			c-0.527,0.962-0.995,1.966-1.479,2.951c-1.574,3.208-3.794,6.125-5.876,9.015c-4.332,6.015-8.523,12.104-12.653,18.256
			c-1.868,2.783-3.914,5.743-4.471,9.117c-0.058,0.349,0.215,0.662,0.53,0.756c1.019,0.304,2.104,0.165,3.143-0.113
			c-4.567,6.026-8.801,12.308-13.17,18.473c-4.855,6.852-10.61,13.134-14.242,20.777c-0.267,0.562,0.232,0.965,0.724,1.033
			c0.576,0.079,1.151,0.057,1.724-0.008c-3.546,4.911-7.168,9.767-10.874,14.557c-2.992,3.868-6.036,7.697-9.12,11.492
			c-2.69,3.311-5.733,6.482-8.102,10.036c-1.236,1.855-2.481,4.547-0.344,6.257c2.517,2.013,6.421,1.867,9.356,0.96
			c1.162,0.137,2.311,0.199,3.384,0.202c4.528,0.013,9.208-0.944,13.258-3.004c4.525-2.302,7.619-6.132,10.151-10.454
			c3.059-5.22,5.719-10.756,8.33-16.209c1.296-2.706,2.595-5.421,3.844-8.152c1.132,1.35,2.703,2.216,4.438,1.415
			c1.512-0.698,2.248-2.275,2.855-3.728c0.748-1.79,1.547-3.547,2.346-5.315c1.961-4.338,3.987-8.665,5.86-13.042
			c0.917-2.143,1.723-4.329,2.555-6.506c0.716-1.876,1.563-3.71,2.148-5.633c0.539-1.77,0.939-3.645,1.431-5.488
			c0.335-0.534,0.656-1.077,0.937-1.654c0.078-0.16,0.15-0.326,0.226-0.488c0.346,0.342,0.703,0.665,1.083,0.936
			c0.621,0.442,1.62-0.076,1.947-0.652c1.525-2.689,1.916-5.743,3.078-8.572c1.402-3.415,2.791-6.825,4.055-10.294
			c2.338-6.418,3.972-13.07,5.988-19.591c0.611-1.978,1.211-4.004,1.889-5.997c0.17-0.229,0.341-0.459,0.527-0.684
			c0.105-0.127,0.202-0.284,0.27-0.449c0.904,0.554,1.858,0.802,2.74-0.272c1.207-1.47,1.777-3.421,2.188-5.239
			c0.54-2.387,1.173-4.734,1.867-7.081c1.572-5.317,3.321-10.579,4.986-15.867c1.652-5.245,7.417-23.686,7.719-27.739
			c0.12,0.083,0.25,0.174,0.365,0.253c0.64,0.44,1.584-0.174,1.804-0.808c1.83-5.269,2.612-10.818,3.206-16.341
			c0.62-5.769,1.236-11.512,2.061-17.257c0.788-5.492,1.407-11.048,2.433-16.501c0.484-2.571,0.985-5.121,1.091-7.743
			c0.015-0.366,0.022-0.882-0.007-1.439C185.819,108.671,185.838,107.887,185.793,107.107z"/>
		<path style="fill:#C97A62;" d="M65.355,347.888c0.031,0.025,0.068,0.041,0.099,0.065c2.262-2.549,4.497-5.124,6.686-7.743
			c4.892-5.851,9.33-12.03,14.092-17.977c4.541-5.671,9.426-11.085,13.46-17.143c-1.349-0.691-2.19-2.049-3.596-2.645
			c-0.274-0.116-0.285-0.536-0.093-0.72c2.216-2.124,3.778-4.968,5.301-7.6c3.771-6.518,7.069-13.319,11.184-19.635
			c1.64-2.517,3.418-5.076,5.666-7.096c1.027-0.923,2.254-1.799,3.606-2.156c-0.888-0.615-1.589-1.434-2.548-2.132
			c-0.186-0.135-0.317-0.411-0.164-0.627c1.573-2.227,2.821-4.707,4.132-7.091c3.547-6.456,7.027-12.99,11.181-19.085
			c1.653-2.425,3.416-4.895,5.6-6.877c1.033-0.937,2.337-1.936,3.768-2.072c-0.965-1.497-1.738-3.111-2.781-4.562
			c-0.125-0.174-0.048-0.408,0.072-0.555c2.762-3.4,5.157-7.079,7.307-10.893c3.953-7.012,7.113-14.454,9.888-22
			c1.318-3.584,2.546-7.201,3.711-10.838c0.571-1.784,1.127-3.572,1.671-5.364c0.166-0.545,0.238-1.251,0.632-1.671
			c0.464-0.493,1.273-0.965,1.957-1.352c-2.789-3.413-1.684-7.993-0.237-11.831c1.658-4.396,3.594-8.659,5.167-13.093
			c1.903-5.364,3.251-10.804,4.58-16.328c1.907-7.923,4.367-15.984,5.342-24.153c-2.156,0.558-3.601,2.649-4.494,4.715
			c-1.393,3.221-1.833,6.855-2.269,10.308c-0.517,4.092-1.26,8.022-2.254,12.037c-1.523,6.153-3.294,12.24-5.127,18.306
			c-2.053,6.794-4.086,13.555-7.163,19.973c-0.357,0.744,0.009,1.338,0.86,1.227c0.714-0.094,1.407-0.306,2.079-0.58
			c-2.017,5.826-17.602,38.011-19.699,41.632c-2.321,4.009-4.493,8.12-6.169,12.444c-0.275,0.711,0.392,1.141,1.021,1.02
			c0.589-0.114,1.169-0.29,1.741-0.508c-0.527,0.963-0.995,1.966-1.479,2.951c-1.574,3.208-3.794,6.125-5.876,9.016
			c-4.332,6.015-8.523,12.104-12.654,18.256c-1.868,2.783-3.914,5.743-4.47,9.117c-0.058,0.349,0.215,0.662,0.529,0.756
			c1.019,0.304,2.103,0.165,3.143-0.113c-4.567,6.026-8.801,12.308-13.17,18.473c-4.855,6.852-10.61,13.134-14.241,20.777
			c-0.267,0.562,0.232,0.965,0.724,1.033c0.576,0.079,1.15,0.057,1.724-0.008c-3.546,4.911-7.168,9.767-10.874,14.557
			c-2.992,3.868-6.036,7.697-9.119,11.492c-2.69,3.311-5.734,6.482-8.102,10.036C64.463,343.486,63.218,346.178,65.355,347.888z"/>
		<path style="fill:#C97A62;" d="M185.793,107.107c-0.084-1.444-0.492-3.192-1.843-3.693c-0.085,3.404-0.315,6.804-0.676,10.19
			c-0.958,9.001-2.722,17.901-4.851,26.693c-2.084,8.606-4.534,17.117-7.032,25.61c-0.106,0.361-0.5,0.409-0.766,0.202
			c-0.951-0.739-2.277-0.764-3.419-0.631c-2.173,0.254-4.287,1.075-6.303,1.997c-0.375,0.864-0.762,1.724-1.171,2.577
			c-0.222,0.464-0.163,0.87,0.119,1.082c2.827-1.369,5.893-2.142,9.071-2.158c0.248-0.001,0.459,0.212,0.458,0.458
			c-0.007,3.892-0.47,7.775-1.193,11.595c-1.416,7.479-3.816,14.771-6.75,21.785c-2.78,6.645-6.053,13.112-9.963,19.167
			c-0.243,0.376-0.85,0.235-0.854-0.231c-0.013-1.523-0.289-3.03-0.588-4.524c-0.853,1.148-1.904,2.132-3.074,2.966
			c-2.889,2.058-6.347,3.259-9.736,4.201c-0.096,0.027-0.192,0.048-0.289,0.074c-0.041,0.104-0.089,0.204-0.129,0.308
			c-0.275,0.711,0.392,1.141,1.021,1.02c0.589-0.114,1.169-0.29,1.741-0.508c-0.527,0.963-0.995,1.966-1.479,2.951
			c-0.002,0.005-0.005,0.009-0.007,0.014c3.167-1.235,6.247-2.753,9.632-3.294c0.336-0.054,0.66,0.198,0.564,0.564
			c-0.879,3.326-1.913,6.61-3.115,9.833c-4.077,10.929-10.076,20.939-16.802,30.425c-0.153,0.215-0.389,0.281-0.627,0.165
			c-1.347-0.658-2.968-0.73-4.439-0.762c-1.525-0.033-3.047,0.043-4.568,0.135c-0.165,0.217-0.322,0.44-0.486,0.658
			c1.426-0.089,2.901-0.078,4.28,0.317c1.097,0.314,2.098,0.904,2.785,1.829c0.802,1.081,1.07,2.456,1.104,3.776
			c0.101,3.883-0.938,7.841-2.193,11.482c-2.71,7.861-6.997,15.021-10.456,22.55c-0.16,0.347-0.775,0.268-0.838-0.109
			c-0.346-2.086-0.624-4.23-1.26-6.257c-0.727,1.395-1.658,2.899-3.107,3.457c-1.113,0.428-2.327,0.093-3.429-0.2
			c-0.8-0.213-1.599-0.429-2.412-0.589c-1.176-0.232-2.38-0.191-3.571-0.102c-2.315,0.173-4.694,0.672-7.074,1.004
			c-0.212,0.407-0.431,0.81-0.634,1.223c1.944,0.24,3.876,0.585,5.778,1.002c3.511,0.769,6.989,1.779,10.299,3.189
			c0.232,0.099,0.273,0.431,0.165,0.627c-3.564,6.385-8.39,12.037-13.276,17.439c-2.301,2.543-4.652,5.033-6.881,7.642
			c-2.331,2.729-4.596,5.513-6.833,8.318c-1.684,2.111-3.349,4.236-5.019,6.357c0.832,0.07,1.654,0.117,2.431,0.119
			c4.528,0.013,9.208-0.944,13.258-3.004c4.525-2.301,7.619-6.132,10.151-10.454c3.059-5.22,5.719-10.756,8.33-16.209
			c1.296-2.706,2.595-5.421,3.845-8.152c1.132,1.35,2.703,2.216,4.438,1.415c1.512-0.698,2.248-2.275,2.855-3.728
			c0.748-1.79,1.547-3.547,2.346-5.315c1.961-4.338,3.986-8.666,5.86-13.042c0.917-2.143,1.723-4.329,2.555-6.506
			c0.716-1.876,1.563-3.71,2.148-5.633c0.539-1.77,0.939-3.645,1.431-5.488c0.335-0.534,0.656-1.077,0.937-1.654
			c0.077-0.16,0.15-0.326,0.226-0.488c0.346,0.342,0.702,0.665,1.083,0.936c0.621,0.443,1.62-0.076,1.947-0.652
			c1.525-2.689,1.916-5.743,3.078-8.572c1.402-3.415,2.791-6.825,4.055-10.295c2.337-6.418,3.972-13.07,5.988-19.591
			c0.611-1.978,1.211-4.004,1.889-5.997c0.17-0.229,0.341-0.459,0.527-0.683c0.105-0.127,0.202-0.284,0.27-0.449
			c0.904,0.553,1.858,0.802,2.74-0.272c1.207-1.47,1.777-3.421,2.188-5.239c0.54-2.387,1.173-4.734,1.867-7.081
			c1.572-5.317,3.321-10.579,4.986-15.867c1.652-5.245,7.417-23.686,7.719-27.739c0.12,0.083,0.251,0.174,0.365,0.253
			c0.64,0.44,1.583-0.174,1.804-0.808c1.829-5.269,2.612-10.818,3.206-16.341c0.62-5.769,1.236-11.512,2.061-17.257
			c0.788-5.492,1.407-11.048,2.433-16.501c0.484-2.571,0.985-5.121,1.091-7.743c0.015-0.367,0.021-0.882-0.007-1.439
			C185.819,108.671,185.838,107.887,185.793,107.107z"/>
		<path style="fill:#387758;" d="M266.656,130.874c-0.819-3.162-2.043-6.164-3.645-9.012c-3.169-5.634-7.479-10.661-12.367-14.875
			c-4.937-4.256-10.557-7.696-16.798-9.648c-6.483-2.029-13.289-2.696-20.027-3.272c-2.987-0.255-5.948-0.347-8.925-0.326
			c-4.35,0.425-8.693,0.938-13.031,1.477c1.332,0.164,2.651,0.452,3.969,0.727c2.268,0.473,4.552,0.877,6.831,1.294
			c4.639,0.848,9.211,1.752,13.717,3.156c2.072,0.646,4.179,0.648,6.262,1.167c1.941,0.484,3.742,1.602,5.368,2.732
			c3.277,2.278,6.034,5.168,9.03,7.782c3.816,3.33,8.049,6.177,12.047,9.283c0.293,0.227,0.81-0.045,0.958-0.321
			c0.232-0.431,0.256-0.789,0.197-1.129c2.989,2.783,5.264,6.274,7.874,9.395c1.614,1.929,3.42,3.689,4.995,5.652
			c1.285,1.602,1.965,3.7,3.534,5.059c0.353,0.305,1.044-0.129,1.135-0.508C268.478,136.595,267.381,133.674,266.656,130.874z"/>
		<path style="fill:#5FA26B;" d="M263.586,126.897c-2.79-3.78-6.082-7.018-9.732-9.964c-7.475-6.032-15.955-10.661-24.467-15.041
			c-0.413-0.212-0.208-0.855,0.231-0.854c2.175,0.004,4.346,0.131,6.508,0.37c3.131,0.347,6.22,0.925,9.292,1.591
			c-3.574-2.407-7.433-4.365-11.571-5.66c-6.484-2.029-13.289-2.696-20.027-3.272c-2.987-0.255-5.948-0.347-8.925-0.326
			c-4.35,0.425-8.693,0.938-13.031,1.477c1.332,0.164,2.651,0.452,3.969,0.727c2.268,0.473,4.552,0.877,6.831,1.294
			c4.639,0.849,9.211,1.752,13.717,3.156c2.072,0.646,4.179,0.648,6.262,1.167c1.941,0.483,3.742,1.602,5.369,2.732
			c3.277,2.278,6.034,5.168,9.03,7.782c3.816,3.33,8.049,6.177,12.047,9.283c0.293,0.227,0.81-0.045,0.958-0.321
			c0.232-0.431,0.256-0.789,0.197-1.129c2.989,2.783,5.263,6.274,7.874,9.395c1.614,1.929,3.42,3.689,4.995,5.652
			c1.285,1.602,1.965,3.7,3.535,5.059c0.353,0.305,1.044-0.129,1.135-0.508c0.617-2.578-0.171-5.162-0.863-7.664
			C265.863,130.157,264.767,128.498,263.586,126.897z"/>
		<path style="fill:#387758;" d="M176.119,89.673c-8.065-2.065-16.414-2.243-24.63-1.199c-2.619,0.776-5.168,1.76-7.572,2.936
			c-11.59,5.667-20.08,16.79-21.35,29.773c-0.408,4.176,0.116,8.349,0.556,12.498c0.271,2.55,0.183,5.999,2.057,7.999
			c0.255,0.272,0.75,0.048,0.848-0.279c0.977-3.256,1.157-6.705,2.01-9.975c-0.02,1.501,0.155,2.995,0.673,4.42
			c0.164,0.451,0.868,0.167,0.955-0.204c0.601-2.565,1.442-5.022,2.526-7.391c-0.138,1.653-0.007,3.331,0.723,4.773
			c0.055,0.108,0.255,0.184,0.367,0.174c2.717-0.238,4.719-2.599,6.856-4.056c2.88-1.965,5.62-4.173,8.099-6.627
			c3.672-3.635,6.556-7.904,8.923-12.459c-0.007,0.454,0.043,0.905,0.206,1.348c0.14,0.381,0.589,0.457,0.932,0.286
			c1.857-0.928,3.008-2.873,4.056-4.585c0.542-0.886,1.126-1.758,1.698-2.638c-0.033,0.403-0.021,0.805,0.075,1.207
			c0.083,0.347,0.543,0.381,0.809,0.248c1.488-0.744,2.491-2.092,3.386-3.453c1.147-1.746,1.986-3.701,3.796-4.797
			c1.774-1.074,3.813,0.711,6.242-3.469c0.609-1.048,2.297-0.835,3.49-1.063c1.082-0.207,2.192-0.177,3.29-0.26
			C182.233,91.549,179.218,90.466,176.119,89.673z"/>
		<path style="fill:#5FA26B;" d="M176.119,89.673c-8.064-2.065-16.414-2.243-24.63-1.199c-2.619,0.776-5.168,1.76-7.572,2.936
			c-8.312,4.064-15.012,10.943-18.616,19.294c6.124-6.133,13.647-10.976,21.768-13.907c0.461-0.166,0.726,0.452,0.446,0.766
			c-2.702,3.027-4.867,6.775-6.222,10.632c4.174-2.049,8.646-3.325,13.076-4.707c0.448-0.14,0.756,0.448,0.446,0.766
			c-2.467,2.537-4.796,5.205-6.967,7.999c-4.827,6.212-8.818,12.999-12.103,20.123c1.574-0.877,2.956-2.253,4.393-3.234
			c2.88-1.965,5.62-4.173,8.099-6.627c3.672-3.635,6.556-7.904,8.923-12.459c-0.007,0.454,0.043,0.905,0.206,1.348
			c0.14,0.381,0.589,0.457,0.932,0.286c1.858-0.928,3.009-2.873,4.056-4.585c0.542-0.886,1.126-1.758,1.698-2.637
			c-0.033,0.403-0.021,0.805,0.075,1.207c0.083,0.347,0.543,0.381,0.809,0.248c1.488-0.744,2.491-2.092,3.386-3.453
			c1.147-1.746,1.986-3.701,3.796-4.797c1.774-1.074,3.813,0.711,6.242-3.469c0.609-1.048,2.298-0.835,3.49-1.063
			c1.082-0.207,2.192-0.177,3.29-0.26C182.233,91.549,179.218,90.466,176.119,89.673z"/>
		<path style="fill:#5FA26B;" d="M264.121,66.129c-1.335-1.936-3.198-3.452-5.29-4.506c-4.514-2.274-9.827-2.654-14.796-2.331
			c-2.114,0.138-4.218,0.411-6.298,0.812c2.411-1.194,5.308-1.677,7.889-1.59c0.278,0.009,0.816-0.398,0.556-0.707
			c-0.936-1.117-2.507-1.402-3.885-1.518c-1.779-0.15-3.579,0.01-5.348,0.212c-4.282,0.489-8.555,1.024-12.705,2.229
			c-9.147,2.657-17.814,7.729-24.458,14.578c-1.369,1.412-2.65,2.911-3.828,4.487c0.751-3.001,1.325-6.05,1.806-9.103
			c0.401-2.548,0.692-5.111,1.085-7.661c0.377-2.449,0.776-4.9,0.942-7.375c0.176-2.623,0.12-5.347-0.755-7.853
			c-0.139-0.398-0.7-0.187-0.858,0.087c-1.283,2.225-1.822,4.783-2.356,7.292c-0.467-1.267-0.86-2.562-1.023-3.906
			c-0.234-1.927,0.098-3.823,0.473-5.709c0.852-4.279,1.872-8.533,2.392-12.87c0.058-0.484-0.624-0.333-0.82-0.121
			c-1.326,1.431-2.625,3.066-3.465,4.877c-0.431-3.643-0.488-7.321-0.837-10.973c-0.204-2.138-0.532-4.249-1.077-6.328
			c-0.513-1.956-1.121-3.893-1.458-5.89c-0.188-1.114-0.262-2.211-0.227-3.339c0.031-1.018,0.074-2.058-0.261-3.036
			c-0.11-0.323-0.496-0.172-0.676-0.012c-4.502,3.979-7.578,9.147-9.628,14.758c-0.994,2.72-1.706,5.508-2.308,8.337
			c-0.549,2.582-1.435,5.188-1.437,7.852c-0.002,2.452,1.476,4.348,2.704,6.354c-0.785-0.424-1.651-0.74-2.476-1.144
			c-0.28-0.137-0.796,0.078-0.777,0.442c0.121,2.376,0.79,4.654,1.6,6.89c-0.793-1.331-1.617-2.642-2.477-3.926
			c-5.441-8.121-14.337-17.015-24.794-17.129c-2.599-0.028-4.94,0.655-7.141,2.036c-2.111,1.325-4.257,3.33-4.821,5.854
			c-0.097,0.433,0.197,0.829,0.684,0.683c1.443-0.433,2.972-0.7,4.478-0.758c0.697-0.027,1.397-0.002,2.085,0.114
			c0.067,0.011,0.302,0.044,0.414,0.064c0.001,0.035,0.013,0.102,0.01,0.187c-0.019,0.504-0.008,1.022-0.067,1.522
			c-0.032,0.272-0.162,0.577-0.142,0.849c0.058,0.79,1.263,1.267,1.813,1.658c2.784,1.98,5.32,4.27,7.571,6.84
			c1.492,1.704,2.517,3.809,4.221,5.332c0.746,0.667,1.595,1.026,2.58,0.632c0.452-0.181,0.831-0.493,1.193-0.831
			c-0.421,0.516-0.857,1.021-1.225,1.559c-0.176,0.257-0.16,0.75,0.223,0.818c2.502,0.447,3.916,3.197,4.949,5.247
			c0.596,1.183,1.106,2.427,1.521,3.702c-4.191-5.032-9.207-9.127-14.523-13.041c-5.705-4.2-12.401-7.318-19.514-8.013
			c-3.983-0.389-7.98,0.106-11.68,1.657c-0.491,0.206-0.859,0.927-0.246,1.205c3.238,1.468,6.528,2.817,9.773,4.27
			c2.917,1.306,5.708,2.798,8.521,4.307c2.096,1.124,4.203,2.235,6.195,3.538c1.505,0.984,3.405,2.197,4.356,3.844
			c-1.098,0.205-2.166,0.423-3.08,1.175c-0.335,0.275-0.6,0.723-0.214,1.077c0.843,0.773,1.915,0.777,2.975,1.012
			c1.376,0.306,2.618,0.995,3.796,1.744c2.503,1.59,5.086,3.056,7.569,4.676c2.26,1.475,4.448,3.116,6.6,4.745
			c1.264,0.957,2.496,1.97,3.636,3.074c-1.022-0.156-2.064-0.217-2.992-0.326c-3.342-0.39-6.646-0.698-10.018-0.578
			c-5.496,0.195-11.005,1.197-16.275,2.748c-9.82,2.888-19.231,8.052-26.09,15.758c-3.923,4.408-6.869,9.584-8.737,15.177
			c-0.13,0.39,0.206,0.698,0.593,0.592c2.682-0.728,4.343-3.391,6.012-5.408c1.729-2.089,3.856-4.318,6.249-5.799
			c-1.287,2.97-2.504,6.158-2.234,9.393c0.057,0.687,0.745,0.657,1.218,0.366c1.424-0.875,2.359-2.257,3.51-3.432
			c1.435-1.465,3.023-2.785,4.651-4.029c3.099-2.368,6.395-4.483,9.837-6.319c6.753-3.602,14.102-6.391,21.561-8.136
			c-1.191,0.938-2.324,1.957-3.399,3.045c-2.24,2.266-5.672,4.743-6.176,8.104c-0.046,0.307,0.25,0.515,0.522,0.521
			c2.15,0.046,3.923-1.372,5.806-2.191c2.651-1.154,5.517-2.015,8.281-2.856c4.227-1.286,8.596-2.215,13-2.703
			c-8.362,4.082-15.785,9.614-22.133,16.531c-4.032,4.393-7.815,9.011-11.383,13.787c-3.293,4.407-6.602,9.185-7.887,14.618
			c-1.181,4.994-1.996,10.77-0.529,15.786c0.225,0.769,1.335,0.197,1.5-0.32c0.456-1.427,0.655-2.906,1.007-4.359
			c0.378-1.561,1.012-3.051,1.714-4.491c1.314-2.695,2.933-5.235,4.594-7.727c1.436-2.153,2.917-4.291,4.577-6.278
			c0.565-0.676,1.156-1.359,1.777-2.018c-2.823,4.255-4.683,9.221-6.23,13.999c-2.538,7.839-3.311,15.823-3.212,24.034
			c0.008,0.707,0.963,0.624,1.3,0.193c5.184-6.621,10.408-13.245,15.28-20.101c1.087-1.53,2.152-3.108,3.158-4.732
			c-0.213,1.989-0.106,3.961,0.653,5.786c0.273,0.657,1.029,0.395,1.438,0.026c2.071-1.869,1.884-5.463,2.594-7.959
			c1.172-4.117,3.015-8.017,4.763-11.912c1.83-4.076,3.733-8.13,5.848-12.067c2.02-3.76,4.335-7.353,6.691-10.91
			c0.177-0.268,0.355-0.534,0.533-0.8c0.837,2.234,1.734,4.449,2.18,6.814c0.764,4.048,0.737,8.3,1.017,12.405
			c0.272,3.984,0.551,8.223,0.105,12.201c-0.318,2.829-1.753,6.12-0.666,8.924c0.205,0.53,0.817,0.299,1.134,0.021
			c1.839-1.616,2.561-4.178,3.309-6.421c0.272-0.815,0.557-1.612,0.892-2.392c-0.072,0.347-0.143,0.694-0.214,1.04
			c-0.417,2.036-0.966,4.084-1.252,6.143c-0.469,3.383,1.747,6.455,2.976,9.45c3.093,7.535,6.208,15.244,7.166,23.394
			c0.102,0.864,1.436,0.266,1.681-0.17c1.414-2.513,2.344-5.233,3.345-7.926c1.011-2.72,2.253-5.344,3.321-8.042
			c2.198-5.557,3.912-11.362,3.943-17.382c0.06-11.456-4.027-22.082-9.433-32.004c-1.082-1.985-2.223-3.943-3.483-5.822
			c1.567,0.686,3.095,1.47,4.579,2.376c3.392,2.07,6.476,4.61,9.28,7.42c0.253,0.254,0.851,0.02,0.826-0.365
			c-0.084-1.29-0.401-2.523-0.775-3.744c2.154,3.024,4.287,6.064,6.435,9.092c1.263,1.779,2.172,3.763,3.142,5.708
			c0.445,0.892,0.928,1.728,1.479,2.558c0.525,0.791,1.043,1.616,1.064,2.594c0.011,0.513,0.816,0.234,0.821-0.174
			c0.024-2.125-0.042-4.255-0.315-6.365c-0.043-0.332-0.092-0.668-0.145-1.003c4.301,6.261,7.153,13.387,10.058,20.377
			c0.934,2.248,1.883,4.489,2.889,6.706c0.18,0.396,0.75,0.157,0.858-0.183c2.866-9.029,1.964-19.213-1.267-28.021
			c-3.305-9.01-9.74-17.047-17.995-21.999c-2.499-1.499-5.215-2.748-7.996-3.623c-1.442-0.454-2.954-0.81-4.469-0.876
			c-1.225-0.053-2.46,0.13-3.681,0.062c2.172-0.77,4.594-0.9,6.853-1.064c3.241-0.235,6.443-0.528,9.699-0.404
			c6.431,0.245,12.92,1.396,18.992,3.55c3.187,1.131,6.291,2.565,9.073,4.501c0.263,0.183,0.793-0.111,0.772-0.438
			c-0.102-1.55-1.089-2.862-2.109-3.966c-1.117-1.209-2.392-2.257-3.665-3.295c-1.499-1.223-3.014-2.384-4.696-3.348
			c-1.677-0.962-3.452-1.752-5.274-2.396c-3.942-1.394-8.108-2.2-12.232-2.831c-4.342-0.664-8.742-1.022-13.137-0.85
			c-3.081,0.12-6.132,0.53-9.102,1.28c2.104-2.126,4.712-3.837,7.2-5.334c4.072-2.449,8.399-4.527,12.735-6.46
			c5.102-2.275,10.428-4.273,15.947-5.251c5.519-0.978,11.233-0.645,16.693,0.53c4.861,1.046,10.217,1.906,14.193,5.125
			c0.33,0.267,0.801-0.211,0.769-0.539C266.396,71.002,265.661,68.361,264.121,66.129z"/>
		<path style="fill:#5FA26B;" d="M264.122,66.129c-1.335-1.936-3.198-3.452-5.29-4.506c-4.514-2.274-9.827-2.654-14.796-2.331
			c-2.114,0.138-4.218,0.412-6.298,0.812c2.411-1.194,5.308-1.677,7.889-1.59c0.278,0.009,0.816-0.398,0.556-0.707
			c-0.936-1.117-2.507-1.402-3.885-1.518c-1.779-0.15-3.579,0.01-5.348,0.212c-4.282,0.489-8.555,1.024-12.705,2.229
			c-9.147,2.657-17.814,7.729-24.458,14.578c-1.369,1.412-2.65,2.911-3.828,4.487c0.751-3.001,1.325-6.05,1.806-9.103
			c0.401-2.548,0.692-5.111,1.085-7.661c0.377-2.449,0.776-4.9,0.942-7.375c0.176-2.623,0.12-5.347-0.755-7.853
			c-0.139-0.398-0.7-0.187-0.858,0.087c-1.283,2.225-1.822,4.783-2.356,7.292c-0.467-1.267-0.86-2.562-1.023-3.905
			c-0.234-1.927,0.098-3.823,0.473-5.709c0.852-4.279,1.872-8.533,2.393-12.87c0.058-0.484-0.624-0.333-0.82-0.121
			c-1.326,1.431-2.625,3.066-3.465,4.877c-0.431-3.643-0.488-7.321-0.837-10.973c-0.204-2.138-0.532-4.249-1.077-6.328
			c-0.513-1.956-1.121-3.893-1.458-5.89c-0.188-1.114-0.262-2.211-0.227-3.339c0.032-1.018,0.074-2.058-0.26-3.036
			c-0.11-0.323-0.496-0.172-0.676-0.012c-0.11,0.097-0.209,0.203-0.317,0.302c-0.864,3.494-1.589,7.021-2.199,10.569
			c-0.652,3.791-1.183,7.602-1.626,11.423c-0.439,3.777-0.946,7.604-0.955,11.41c-0.018,7.788,1.849,15.493,1.315,23.292
			c-0.03,0.443-0.61,0.637-0.854,0.231c-1.134-1.885-2.352-3.719-3.549-5.564c-2.33-3.592-4.645-7.237-6.355-11.174
			c-0.194-0.446-0.38-0.897-0.557-1.353c-5.464-8.002-14.223-16.588-24.497-16.7c-2.599-0.028-4.94,0.655-7.141,2.036
			c-1.026,0.644-2.057,1.451-2.913,2.398c0.006-0.001,0.011-0.003,0.017-0.004c1.49-0.376,2.992-0.874,4.527-1.025
			c0.815-0.08,1.674,0.075,2.474,0.222c1.049,0.193,2.076,0.493,3.072,0.874c1.986,0.758,3.848,1.809,5.576,3.041
			c3.388,2.416,6.298,5.48,8.82,8.777c5.328,6.964,8.869,15.132,11.933,23.291c0.19,0.505-0.576,0.776-0.838,0.353
			c-2.225-3.599-5.584-6.069-8.913-8.572c0.072,0.14,0.142,0.279,0.21,0.414c0.596,1.183,1.106,2.427,1.522,3.702
			c-4.191-5.032-9.207-9.127-14.523-13.041c-5.705-4.2-12.4-7.318-19.514-8.013c-3.185-0.311-6.377-0.045-9.421,0.862
			c0.689,0.063,1.378,0.125,2.065,0.2c3.233,0.351,6.456,0.896,9.528,1.991c3.398,1.21,6.553,3.033,9.311,5.356
			c2.767,2.331,5.095,5.116,7.202,8.045c1.052,1.462,2.052,2.962,3.043,4.466c0.494,0.749,0.986,1.5,1.481,2.249
			c0.034,0.051,0.067,0.101,0.101,0.152c0.188,0.201,0.381,0.397,0.56,0.606c0.379,0.445,1.646,1.593,0.996,2.208
			c-0.156,0.148-0.366,0.164-0.555,0.072c-0.372-0.181-0.595-0.633-0.815-0.959c-0.29-0.43-0.578-0.861-0.865-1.294
			c-0.01-0.016-0.021-0.032-0.031-0.047c-0.177-0.189-0.344-0.386-0.528-0.567c-0.782-0.773-1.623-1.486-2.506-2.139
			c-1.108-0.818-2.262-1.547-3.447-2.218c-0.812,0.183-1.59,0.446-2.28,1.014c-0.335,0.275-0.6,0.723-0.214,1.077
			c0.843,0.772,1.915,0.777,2.975,1.012c1.375,0.306,2.618,0.995,3.796,1.744c2.503,1.59,5.086,3.056,7.569,4.676
			c2.26,1.475,4.448,3.116,6.6,4.745c1.264,0.957,2.496,1.97,3.636,3.074c-1.022-0.156-2.064-0.217-2.992-0.326
			c-3.342-0.39-6.646-0.698-10.018-0.578c-3.363,0.119-6.73,0.544-10.045,1.208c0.592-0.031,1.185-0.065,1.774-0.081
			c3.38-0.09,6.802,0.082,10.119,0.771c2.587,0.538,5.251,1.413,7.296,3.149c0.368,0.313-0.031,0.866-0.446,0.766
			c-3.214-0.774-6.553-0.872-9.823-0.411c-6.002,0.848-11.663,3.356-16.878,6.36c-5.109,2.943-9.874,6.439-14.523,10.053
			c-0.294,0.229-0.789,0.112-0.783-0.324c0.048-3.43,2.499-6.023,4.402-8.711c-2.394,1.108-4.62,2.605-6.681,4.231
			c-5.183,4.09-9.662,9.168-13.249,14.702c-0.529,0.817-1.049,1.658-1.552,2.517c2.609-0.775,4.249-3.378,5.892-5.363
			c1.729-2.089,3.856-4.318,6.249-5.799c-1.287,2.97-2.504,6.158-2.234,9.393c0.057,0.687,0.745,0.657,1.218,0.366
			c1.424-0.875,2.359-2.257,3.51-3.432c1.436-1.465,3.023-2.785,4.651-4.029c3.099-2.368,6.395-4.483,9.837-6.318
			c6.753-3.602,14.101-6.391,21.56-8.136c-1.191,0.938-2.324,1.957-3.399,3.045c-2.24,2.266-5.672,4.743-6.176,8.104
			c-0.046,0.307,0.25,0.515,0.522,0.521c2.15,0.046,3.923-1.372,5.806-2.191c2.651-1.154,5.517-2.015,8.281-2.856
			c3.898-1.186,7.918-2.051,11.974-2.564c2.837-0.957,5.748-1.69,8.735-2.132c0.409-0.061,0.821,0.425,0.446,0.766
			c-0.591,0.537-1.186,1.071-1.783,1.602c-4.689,4.172-9.542,8.159-14.142,12.431c-4.521,4.199-8.787,8.708-12.255,13.828
			c-3.708,5.475-6.237,11.529-8.286,17.792c-2.175,6.651-3.804,13.479-5.044,20.363c-0.52,2.884-0.955,5.783-1.332,8.689
			c5.113-6.529,10.26-13.065,15.064-19.826c1.087-1.53,2.152-3.108,3.158-4.732c-0.213,1.989-0.107,3.961,0.653,5.786
			c0.273,0.657,1.029,0.395,1.438,0.026c2.071-1.869,1.884-5.463,2.594-7.959c1.172-4.117,3.015-8.017,4.763-11.912
			c1.83-4.076,3.733-8.13,5.848-12.067c2.02-3.76,4.335-7.353,6.691-10.909c0.178-0.268,0.355-0.534,0.533-0.8
			c0.375,1.002,0.759,2.001,1.112,3.011c0.109-2.938,0.351-5.868,0.83-8.774c0.057-0.349,0.543-0.429,0.766-0.202
			c0.523,0.532,1.036,1.075,1.535,1.631c3.996,4.447,7.111,9.603,9.428,15.103c2.362,5.607,3.903,11.529,4.916,17.52
			c1.045,6.183,1.546,12.447,1.757,18.71c0.212,6.288,0.129,12.581-0.03,18.868c-0.011,0.445-0.025,0.89-0.037,1.335
			c0.486-1.231,0.936-2.477,1.398-3.719c1.011-2.72,2.253-5.344,3.32-8.042c2.198-5.557,3.912-11.362,3.943-17.382
			c0.06-11.456-4.027-22.082-9.433-32.004c-1.081-1.985-2.223-3.943-3.483-5.822c0.532,0.233,1.052,0.494,1.574,0.75
			c-1.652-2.2-3.187-4.477-4.354-7.001c-0.131-0.282,0.016-0.725,0.396-0.69c0.637,0.059,1.272,0.135,1.905,0.229
			c5.093,0.753,9.936,2.775,14.19,5.653c4.39,2.97,8.151,6.777,11.359,10.98c3.357,4.398,6.111,9.246,8.347,14.301
			c2.232,5.044,3.971,10.308,5.169,15.692c0.402,1.806,0.744,3.63,1.019,5.463c0.233,0.03,0.518-0.149,0.592-0.38
			c2.866-9.029,1.964-19.213-1.266-28.021c-3.305-9.01-9.74-17.047-17.996-21.999c-2.499-1.499-5.215-2.748-7.996-3.623
			c-1.442-0.454-2.954-0.81-4.469-0.876c-1.225-0.053-2.46,0.131-3.681,0.062c2.172-0.77,4.594-0.9,6.853-1.064
			c3.241-0.235,6.444-0.528,9.699-0.404c6.431,0.245,12.92,1.396,18.992,3.55c3.187,1.131,6.291,2.565,9.073,4.501
			c0.263,0.183,0.793-0.111,0.772-0.438c-0.102-1.55-1.089-2.862-2.109-3.966c-1.117-1.209-2.392-2.257-3.665-3.295
			c-1.499-1.223-3.014-2.384-4.696-3.348c-1.677-0.962-3.452-1.752-5.274-2.396c-3.942-1.394-8.108-2.2-12.232-2.831
			c-4.343-0.664-8.742-1.022-13.137-0.85c-3.08,0.12-6.132,0.53-9.102,1.28c2.104-2.126,4.712-3.837,7.2-5.334
			c4.072-2.449,8.399-4.527,12.735-6.46c5.102-2.275,10.428-4.273,15.947-5.251c5.519-0.978,11.234-0.645,16.693,0.53
			c4.861,1.046,10.217,1.906,14.193,5.125c0.33,0.267,0.801-0.211,0.77-0.539C266.396,71.002,265.662,68.361,264.122,66.129z"/>
		<path style="fill:#BACF72;" d="M181.899,74.248c-1.606-1.526-3.319-2.958-5.03-4.333c-5.272-4.239-11.032-7.73-17.48-9.849
			c-6.411-2.107-13.195-3.102-19.905-3.643c-6.44-0.519-13.179-0.526-19.424,1.334c-3.699,1.102-7.23,2.671-10.657,4.433
			c-2.464,1.267-5.343,2.479-6.913,4.883c-0.271,0.415,0.05,0.806,0.507,0.723c1.152-0.208,2.204-0.717,3.295-1.121
			c1.345-0.498,2.829-0.656,4.242-0.862c2.682-0.391,5.397-0.569,8.101-0.726c3.875-0.226,7.762-0.22,11.551,0.53
			c-1.111,0.392-2.215,0.803-3.328,1.182c-1.773,0.604-3.514,1.267-5.146,2.196c-1.448,0.825-2.951,1.878-3.572,3.49
			c-0.115,0.3,0.099,0.668,0.446,0.637c2.535-0.226,4.675-1.469,7.061-2.227c1.397-0.443,2.89-0.675,4.338-0.881
			c0.381-0.054,0.765-0.091,1.15-0.122c-0.463,0.368-0.91,0.743-1.329,1.11c-2.108,1.844-4.071,3.999-5.262,6.559
			c-0.288,0.618,0.513,0.905,0.964,0.676c3.097-1.573,6.526-2.252,9.725-3.565c1.253-0.514,2.499-1.058,3.788-1.48
			c0.754-0.246,1.627-0.525,2.478-0.574c-2.392,1.679-4.879,3.235-6.656,5.618c-0.188,0.252-0.16,0.784,0.229,0.841
			c2.14,0.314,4.286-0.763,6.394-1.027c2.771-0.346,5.553-0.395,8.332-0.628c2.01-0.169,4.011-0.434,6.03-0.487
			c1.48-0.038,3.154-0.042,4.578,0.513c-2.633,1.076-5.46,1.653-8.028,2.905c-0.228,0.111-0.441,0.358-0.553,0.613
			c1.86,0.052,3.714,0.179,5.564,0.357c1.373-0.142,2.709-0.143,4.108-0.053c3.319,0.214,6.631,0.569,9.908,1.138
			c5.598,0.971,10.825,2.684,15.731,5.497C185.641,83.258,184.069,78.612,181.899,74.248z"/>
		<path style="fill:#BACF72;" d="M181.899,74.248c-1.606-1.526-3.319-2.958-5.03-4.333c-5.272-4.239-11.032-7.73-17.48-9.849
			c-6.411-2.107-13.195-3.102-19.905-3.643c-6.44-0.519-13.179-0.526-19.424,1.334c-3.699,1.102-7.23,2.671-10.657,4.433
			c-2.464,1.267-5.343,2.479-6.913,4.883c-0.271,0.415,0.05,0.806,0.507,0.723c1.152-0.208,2.204-0.717,3.295-1.121
			c1.345-0.498,2.829-0.656,4.242-0.862c2.682-0.391,5.397-0.569,8.101-0.726c3.875-0.226,7.762-0.22,11.551,0.53
			c-1.111,0.392-2.215,0.803-3.328,1.182c-1.773,0.604-3.514,1.267-5.146,2.196c-1.448,0.825-2.951,1.878-3.572,3.49
			c-0.115,0.3,0.099,0.668,0.446,0.637c2.535-0.226,4.675-1.469,7.061-2.227c1.397-0.443,2.89-0.675,4.338-0.881
			c0.381-0.054,0.765-0.091,1.15-0.122c-0.463,0.368-0.91,0.743-1.329,1.11c-2.108,1.844-4.071,3.999-5.262,6.559
			c-0.288,0.618,0.513,0.905,0.964,0.676c3.097-1.573,6.526-2.252,9.725-3.565c1.253-0.514,2.499-1.058,3.788-1.48
			c0.754-0.246,1.627-0.525,2.478-0.574c-2.392,1.679-4.879,3.235-6.656,5.618c-0.188,0.252-0.16,0.784,0.229,0.841
			c2.14,0.314,4.286-0.763,6.394-1.027c2.771-0.346,5.553-0.395,8.332-0.628c2.01-0.169,4.011-0.434,6.03-0.487
			c1.48-0.038,3.154-0.042,4.578,0.513c-2.633,1.076-5.46,1.653-8.028,2.905c-0.228,0.111-0.441,0.358-0.553,0.613
			c1.86,0.052,3.714,0.179,5.564,0.357c1.373-0.142,2.709-0.143,4.108-0.053c3.319,0.214,6.631,0.569,9.908,1.138
			c5.598,0.971,10.825,2.684,15.731,5.497C185.641,83.258,184.069,78.612,181.899,74.248z"/>
		<path style="fill:#BACF72;" d="M139.022,73.193c0.754-0.246,1.627-0.525,2.477-0.574c-1.655,1.162-3.349,2.27-4.828,3.629
			c3.848-2.126,7.931-3.844,11.649-6.198c-1.865-0.135-3.758,0.268-5.553,0.734c-1.902,0.494-3.794,1.032-5.696,1.531
			c-1.915,0.502-3.817,1.064-5.673,1.754c-2.411,0.896-4.713,2.037-6.836,3.458c-0.006,0.012-0.013,0.023-0.018,0.035
			c-0.288,0.618,0.513,0.905,0.964,0.676c3.097-1.573,6.526-2.252,9.725-3.565C136.487,74.158,137.732,73.614,139.022,73.193z"/>
		<path style="fill:#BACF72;" d="M181.9,74.248c-1.606-1.526-3.319-2.958-5.03-4.333c-0.659-0.53-1.326-1.048-2.001-1.554
			c1.23,1.357,2.353,2.823,3.335,4.415c0.29,0.47-0.343,0.873-0.72,0.555c-2.449-2.063-5.184-3.772-8.032-5.228
			c-5.536-2.83-11.548-4.746-17.646-5.916c-4.737-0.909-9.611-1.369-14.443-1.134c1.895,0.382,3.799,0.72,5.704,1.052
			c5.165,0.901,10.381,1.786,15.322,3.594c5.023,1.838,9.585,4.692,13.05,8.808c0.269,0.32,0.079,0.736-0.324,0.783
			c-3.284,0.379-6.59,0.451-9.892,0.522c-2.888,0.063-5.78,0.132-8.656,0.429c-2.855,0.295-5.721,0.882-8.532,1.464
			c-0.222,0.046-0.439,0.103-0.659,0.152c2.137-0.181,4.279-0.254,6.418-0.434c2.01-0.169,4.011-0.434,6.03-0.487
			c1.48-0.038,3.154-0.042,4.577,0.513c-2.633,1.076-5.46,1.653-8.028,2.905c-0.228,0.111-0.441,0.358-0.552,0.613
			c1.86,0.052,3.714,0.179,5.564,0.357c1.373-0.142,2.709-0.143,4.108-0.053c3.319,0.214,6.63,0.569,9.908,1.138
			c5.598,0.971,10.825,2.684,15.731,5.497C185.641,83.258,184.069,78.612,181.9,74.248z"/>
		<path style="fill:#BACF72;" d="M242.984,44.853c-2.349-2.358-6.952-1.627-9.922-1.341c-5.15,0.495-10.072,1.909-14.825,3.931
			c-3.137,1.335-6.197,2.912-9.156,4.648c-4.29,3.035-8.164,6.625-11.333,10.888c-2.034,2.735-3.642,5.736-4.813,8.922
			c-0.166,2.041-0.247,4.092-0.466,6.129c-0.171,1.592-0.351,3.188-0.35,4.791c0,0.583,0.022,1.176,0.084,1.764
			c0.122-0.087,0.229-0.195,0.308-0.309c4.029-5.836,8.358-11.438,13.616-16.228c2.685-2.446,5.641-4.635,8.821-6.396
			c3.56-1.971,7.225-3.75,10.762-5.765c1.827-1.041,3.516-2.366,5.417-3.269c1.398-0.664,2.929-1.114,4.04-2.249
			c0.207-0.212,0.259-0.506,0.037-0.719c-0.529-0.506-1.178-0.79-1.87-0.95c2.849-1.199,5.696-2.573,8.758-2.713
			C242.482,45.969,243.463,45.334,242.984,44.853z"/>
		<path style="fill:#BACF72;" d="M242.802,44.694c-1.018,0.179-2.039,0.338-3.056,0.527c-9.795,1.819-19.066,6.252-27.118,12.043
			c-7.362,5.295-13.985,12.068-17.547,20.528c-0.169,0.402-0.737,0.465-0.884,0c-0.527-1.669-0.682-3.438-0.617-5.181
			c0.038-1.027,0.152-2.05,0.316-3.066c-0.348,0.772-0.668,1.558-0.961,2.355c-0.166,2.041-0.247,4.091-0.465,6.129
			c-0.171,1.592-0.351,3.188-0.35,4.792c0,0.583,0.022,1.176,0.084,1.764c0.122-0.087,0.229-0.195,0.308-0.309
			c4.029-5.836,8.358-11.438,13.616-16.228c2.685-2.446,5.641-4.635,8.821-6.396c3.56-1.971,7.225-3.75,10.762-5.765
			c1.827-1.041,3.516-2.366,5.416-3.269c1.398-0.664,2.929-1.114,4.04-2.249c0.207-0.212,0.259-0.506,0.036-0.719
			c-0.529-0.506-1.178-0.79-1.87-0.95c2.849-1.199,5.696-2.573,8.758-2.713c0.39-0.018,1.372-0.653,0.892-1.134
			C242.926,44.795,242.862,44.748,242.802,44.694z"/>
		<path style="fill:#BACF72;" d="M260.964,102.988c-0.496-1.818-0.529-3.678-0.712-5.543c-0.169-1.712-0.561-3.39-1.04-5.041
			c-0.966-3.326-2.476-6.536-4.697-9.214c-3.013-3.634-6.948-5.464-11.3-6.263c1.157,0.02,2.314,0.106,3.432,0.164
			c0.471,0.024,1.468-0.728,0.983-1.25c-2.187-2.354-5.98-2.967-9.01-3.394c-4.332-0.611-8.703-0.651-13.052-0.202
			c-7.961,0.82-15.81,3.165-22.689,7.299c-2.858,1.718-5.49,3.755-7.899,6.042c-0.197,0.023-0.402,0.117-0.568,0.322
			c-1.216,1.499-2.656,2.749-3.317,4.613c-0.09,0.254,0.014,0.573,0.299,0.641c1.79,0.433,3.743-0.656,5.48-1
			c2.136-0.424,4.303-0.705,6.451-1.061c4.339-0.719,8.683-1.454,12.977-2.407c0.431-0.096,0.987-0.703,0.524-1.087
			c-0.043-0.036-0.093-0.063-0.138-0.097c2.789-0.182,5.548,0.025,8.361,0.297c3.222,0.31,6.338,1.319,9.568,1.535
			c0.408,0.027,1.192-0.507,0.969-1c-0.011-0.024-0.026-0.044-0.038-0.068c9.642,3.099,19.587,7.968,24.234,17.381
			C260.059,104.215,261.107,103.509,260.964,102.988z"/>
		<path style="fill:#BACF72;" d="M260.252,97.445c-0.018-0.188-0.049-0.374-0.073-0.562c-1.206-2.2-2.613-4.287-4.247-6.197
			c-3.286-3.841-7.397-6.878-12.003-8.954c-5.062-2.281-10.67-3.422-16.194-3.759c-5.81-0.355-11.698,0.194-17.311,1.758
			c-5.575,1.554-10.9,4.151-15.259,7.996c-0.34,0.3-0.878,0.012-0.766-0.446c0.141-0.579,0.339-1.139,0.561-1.69
			c-0.192,0.026-0.389,0.117-0.55,0.316c-1.216,1.499-2.656,2.749-3.317,4.613c-0.09,0.254,0.014,0.573,0.299,0.641
			c1.79,0.433,3.743-0.656,5.48-1.001c2.136-0.424,4.303-0.705,6.451-1.061c4.339-0.719,8.682-1.454,12.978-2.407
			c0.431-0.096,0.986-0.703,0.524-1.087c-0.043-0.036-0.093-0.063-0.137-0.097c2.789-0.182,5.548,0.025,8.361,0.297
			c3.222,0.31,6.338,1.319,9.568,1.535c0.408,0.027,1.192-0.507,0.969-1c-0.011-0.024-0.026-0.044-0.038-0.068
			c9.643,3.099,19.587,7.968,24.234,17.381c0.277,0.561,1.325-0.145,1.183-0.666C260.468,101.17,260.436,99.31,260.252,97.445z"/>
	</g>
	<g>
		<path style="fill:#383735;" d="M147.101,366.224c-0.642-1.787-1.516-3.482-2.342-5.188c-1.117-2.31-1.836-4.806-2.816-7.177
			c-1.06-2.562-2.294-5.067-3.786-7.406c-1.531-2.399-3.374-4.444-5.399-6.428c-2.061-2.021-3.919-4.241-5.94-6.303
			c-1.719-1.755-3.529-3.53-5.791-4.56c-2.376-1.082-4.984-1.529-7.529-2.024c-3.249-0.632-6.497-1.269-9.739-1.938
			c-6.499-1.341-12.99-2.724-19.465-4.175c-5.866-1.315-11.717-3.199-17.78-3.273c-6.035-0.073-11.657,2.418-17.035,4.915
			c-5.517,2.561-10.897,5.463-16.217,8.408c-4.796,2.656-9.478,5.59-13.645,9.169c-4.169,3.581-7.615,7.867-10.16,12.744
			c-0.578,1.107-1.069,2.244-1.541,3.391c-1.374,2.469-2.306,5.125-2.959,7.866c-0.056,0.219-0.123,0.436-0.171,0.658
			c-0.049,0.229-0.093,0.469-0.133,0.712c-0.061,0.301-0.125,0.601-0.181,0.903c-0.248,1.345-0.431,2.736-0.387,4.105
			c0.019,0.574,0.071,1.348,0.314,1.991c-0.001,0.002-0.001,0.003-0.001,0.005c-0.062,0.196-0.038,0.424,0.147,0.547
			c0.087,0.058,0.181,0.102,0.273,0.151c0.129,0.141,0.273,0.267,0.453,0.351c0.112,0.052,0.264,0.048,0.418,0.009
			c1.089,0.314,2.318,0.276,3.402,0.213c2.135-0.123,4.25-0.494,6.361-0.82c5.499-0.849,11.156-0.224,16.683,0.1
			c6.606,0.387,13.151,0.546,19.766,0.377c6.628-0.169,13.259-0.196,19.888-0.064c6.64,0.133,13.258,0.404,19.901,0.246
			c6.618-0.157,13.234-0.437,19.853-0.147c6.586,0.288,13.196,0.451,19.778-0.023c2.161-0.156,4.306-0.372,6.471-0.466
			c1.861-0.08,3.756-0.179,5.573-0.615c1.411-0.339,2.993-0.917,3.829-2.186C148.031,369.028,147.576,367.545,147.101,366.224z"/>
		<path style="fill:#797C75;" d="M145.335,370.707c-2.861,1.626-6.756,1.039-9.911,1.278c-6.151,0.466-12.286,0.617-18.454,0.427
			c-6.321-0.195-12.597-0.389-18.924-0.246c-6.328,0.143-12.631,0.24-18.958,0.004c-6.329-0.236-12.664-0.294-18.997-0.222
			c-6.312,0.072-12.621,0.436-18.933,0.238c-6.224-0.196-12.434-0.704-18.661-0.819c-2.088-0.039-4.083,0.003-6.146,0.316
			c-1.959,0.298-3.91,0.668-5.882,0.866c-1.378,0.138-3.209,0.364-4.54-0.274c-0.26,0.05-0.553-0.086-0.532-0.425
			c0.075-1.218,0.129-2.438,0.214-3.656c-0.015,0.063-0.03,0.126-0.045,0.189c-0.04-0.072-0.062-0.151-0.095-0.226
			c0.097-0.725,0.224-1.436,0.315-2.079c0.002-0.017,0.006-0.033,0.008-0.05c0.318-3.111,0.971-6.462,2.759-8.973
			c1.998-4.465,4.296-8.655,7.64-12.324c7.412-8.133,17.85-13.119,27.484-18.083c5.245-2.703,10.767-5.557,16.502-7.061
			c5.807-1.522,11.855-0.214,17.553,1.156c11.965,2.875,24.067,5.155,36.147,7.492c2.45,0.474,5.021,0.953,7.234,2.16
			c2.296,1.253,4.13,3.436,5.855,5.356c1.743,1.94,3.456,3.891,5.33,5.707c1.982,1.919,3.697,4.065,5.15,6.411
			c1.511,2.439,2.751,5.036,3.817,7.698c0.825,2.061,1.515,4.179,2.47,6.185c0.817,1.716,1.687,3.419,2.293,5.224
			C146.508,368.409,146.865,369.837,145.335,370.707z"/>
		<path style="fill:#797C75;" d="M145.335,370.707c-2.861,1.626-6.756,1.039-9.911,1.278c-6.151,0.466-12.286,0.617-18.454,0.427
			c-6.321-0.195-12.597-0.389-18.924-0.246c-6.328,0.143-12.631,0.24-18.958,0.004c-6.329-0.236-12.664-0.294-18.997-0.222
			c-6.312,0.072-12.621,0.436-18.933,0.238c-6.224-0.196-12.434-0.704-18.661-0.819c-2.088-0.039-4.083,0.003-6.146,0.316
			c-1.959,0.298-3.91,0.668-5.882,0.866c-1.378,0.138-3.209,0.364-4.54-0.274c-0.26,0.05-0.553-0.086-0.532-0.425
			c0.075-1.218,0.129-2.438,0.214-3.656c-0.015,0.063-0.03,0.126-0.045,0.189c-0.04-0.072-0.062-0.151-0.095-0.226
			c0.097-0.725,0.224-1.436,0.315-2.079c0.002-0.017,0.006-0.033,0.008-0.05c0.318-3.111,0.971-6.462,2.759-8.973
			c1.998-4.465,4.296-8.655,7.64-12.324c7.412-8.133,17.85-13.119,27.484-18.083c5.245-2.703,10.767-5.557,16.502-7.061
			c5.807-1.522,11.855-0.214,17.553,1.156c11.965,2.875,24.067,5.155,36.147,7.492c2.45,0.474,5.021,0.953,7.234,2.16
			c2.296,1.253,4.13,3.436,5.855,5.356c1.743,1.94,3.456,3.891,5.33,5.707c1.982,1.919,3.697,4.065,5.15,6.411
			c1.511,2.439,2.751,5.036,3.817,7.698c0.825,2.061,1.515,4.179,2.47,6.185c0.817,1.716,1.687,3.419,2.293,5.224
			C146.508,368.409,146.865,369.837,145.335,370.707z"/>
		<path style="fill:#797C75;" d="M37.614,333.126c0.951-0.921,1.942-1.79,2.959-2.625c-2.569,1.437-5.099,2.945-7.588,4.515
			c-3.37,2.125-6.706,4.286-9.62,7.023c-5.796,5.445-10.064,12.444-12.524,19.995c2.927-2.397,5.049-5.641,7.199-8.72
			c2.087-2.989,4.298-6.019,7.362-8.081c3.107-2.09,6.867-2.69,10.533-2.939c4.377-0.298,8.798-0.037,13.143,0.533
			c1.72,0.226,3.442,0.5,5.15,0.841c-6.794-2.147-13.953-2.706-20.882-4.271c-0.289-0.065-0.42-0.428-0.274-0.674
			C34.307,336.652,35.885,334.801,37.614,333.126z"/>
		<path style="opacity:0.47;fill:#797C75;" d="M146.028,366.978c-0.606-1.805-1.477-3.509-2.293-5.224
			c-0.955-2.006-1.645-4.125-2.47-6.185c-1.066-2.661-2.305-5.258-3.817-7.697c-1.453-2.346-3.168-4.492-5.15-6.411
			c-1.874-1.815-3.588-3.767-5.33-5.707c-1.725-1.92-3.559-4.102-5.855-5.356c-2.213-1.208-4.784-1.686-7.234-2.16
			c-12.079-2.338-24.182-4.617-36.147-7.492c-5.699-1.369-11.746-2.678-17.553-1.156c-0.064,0.017-0.127,0.038-0.191,0.056
			c3.415,0.307,6.728,1.376,9.637,3.389c1.578,1.092,3.176,2.123,4.806,3.14c1.861,1.16,3.754,2.349,5.378,3.833
			c1.143,1.044,2.229,2.368,2.079,4.011c-0.163,1.787-1.243,3.455-2.242,4.889c-2.406,3.457-5.426,6.43-7.981,9.771
			c-2.498,3.266-5.411,6.082-9.304,7.572c-1.821,0.697-3.735,1.124-5.644,1.499c-2.683,0.527-5.381,0.982-8.073,1.458
			c-6.961,1.23-13.879,2.694-20.791,4.173c-7.429,1.59-14.867,3.189-22.346,4.541c-0.012,0.08-0.025,0.157-0.036,0.238
			c0.033,0.075,0.055,0.154,0.095,0.226c0.016-0.063,0.03-0.126,0.046-0.189c-0.086,1.218-0.139,2.437-0.214,3.656
			c-0.021,0.338,0.271,0.475,0.532,0.425c1.331,0.638,3.162,0.412,4.54,0.274c1.973-0.198,3.923-0.568,5.882-0.866
			c2.063-0.314,4.058-0.355,6.146-0.317c6.227,0.115,12.437,0.624,18.661,0.819c6.312,0.198,12.621-0.166,18.933-0.238
			c6.333-0.072,12.668-0.014,18.997,0.222c6.327,0.236,12.63,0.139,18.958-0.004c6.327-0.143,12.603,0.051,18.924,0.246
			c6.168,0.19,12.303,0.039,18.454-0.427c3.156-0.239,7.05,0.348,9.911-1.279C146.865,369.837,146.508,368.409,146.028,366.978z"/>
		<path style="opacity:0.47;fill:#797C75;" d="M146.028,366.978c-0.606-1.805-1.477-3.509-2.293-5.224
			c-0.955-2.006-1.645-4.125-2.47-6.185c-1.066-2.661-2.305-5.258-3.817-7.697c-1.453-2.346-3.168-4.492-5.15-6.411
			c-1.874-1.815-3.588-3.767-5.33-5.707c-1.725-1.92-3.559-4.102-5.855-5.356c-2.213-1.208-4.784-1.686-7.234-2.16
			c-9.381-1.815-18.774-3.599-28.108-5.651c3.78,1.134,7.553,2.291,11.274,3.608c3.042,1.077,6.05,2.261,8.976,3.625
			c2.57,1.198,5.023,2.616,7.553,3.891c1.043,0.526,2.045,1.068,1.834,2.392c-0.124,0.776-0.418,1.53-0.648,2.278
			c-0.386,1.257-0.683,2.531-1.015,3.802c-0.728,2.79-1.629,5.544-2.818,8.174c-1.116,2.469-2.52,4.924-4.542,6.767
			c-0.31,0.283-0.743,0.069-0.782-0.324c-0.194-1.934-0.756-3.826-1.528-5.605c-1.479-3.409-3.674-6.492-6.115-9.276
			c-1.922-2.192-4.032-4.224-6.278-6.088c3.175,6.012,6.35,12.089,8.227,18.645c0.248,0.864,0.471,1.734,0.666,2.611
			c0.134,0.602,0.474,1.31-0.01,1.792c-1.143,1.136-2.317,2.231-3.423,3.405c-2.308,2.447-4.478,5.021-6.585,7.642
			c-0.634,0.789-1.256,1.588-1.879,2.385c3.121-0.013,6.242-0.072,9.369-0.143c6.327-0.143,12.603,0.051,18.924,0.246
			c6.168,0.19,12.303,0.039,18.454-0.427c3.156-0.239,7.05,0.348,9.911-1.279C146.865,369.837,146.508,368.409,146.028,366.978z"/>
		<path style="opacity:0.47;fill:#797C75;" d="M114.426,352.205c-1.678,5.437-3.073,11.271-6.158,16.132
			c1.128-0.646,2.192-1.399,3.156-2.277c2.425-2.207,4.262-5.085,5.021-8.292c0.71-2.998,0.345-6.083-0.936-8.846
			C115.128,350.011,114.766,351.104,114.426,352.205z"/>
		<path style="opacity:0.47;fill:#797C75;" d="M146.028,366.978c-0.606-1.805-1.477-3.509-2.293-5.224
			c-0.955-2.006-1.645-4.125-2.47-6.185c-1.066-2.661-2.305-5.258-3.817-7.697c-1.453-2.346-3.168-4.492-5.15-6.411
			c-1.874-1.815-3.588-3.767-5.33-5.707c-1.725-1.92-3.559-4.102-5.855-5.356c-0.801-0.437-1.649-0.776-2.521-1.057
			c1.205,1.722,2.597,3.31,4.027,4.858c3.768,4.08,7.638,8.13,9.109,13.648c1.834,6.884,2.364,14.049,2.979,21.12
			c0.022,0.25-0.226,0.455-0.458,0.458c-1.239,0.017-2.346,0.662-3.31,1.391c-0.617,0.467-1.194,0.985-1.754,1.521
			c2.08-0.085,4.159-0.192,6.241-0.35c3.156-0.239,7.05,0.348,9.911-1.279C146.865,369.837,146.508,368.409,146.028,366.978z"/>
	</g>
</g>
</svg>
